<svg width="20" height="18" viewBox="0 0 20 18" fill="none" xmlns="http://www.w3.org/2000/svg">
<path d="M6.28968 17.128C13.837 17.128 17.965 10.8752 17.965 5.45279C17.965 5.27519 17.965 5.09839 17.953 4.92239C18.7561 4.34152 19.4493 3.6223 20.0003 2.79839C19.2514 3.13024 18.4569 3.34786 17.6434 3.44399C18.5 2.93118 19.1411 2.12461 19.4475 1.17439C18.642 1.65236 17.7607 1.9892 16.8418 2.17039C16.2231 1.51254 15.4049 1.07693 14.5137 0.930964C13.6225 0.785 12.708 0.936822 11.9118 1.36294C11.1156 1.78905 10.482 2.4657 10.1091 3.28818C9.73618 4.11066 9.64474 5.03311 9.84893 5.91279C8.21751 5.83101 6.62152 5.40706 5.16458 4.66847C3.70763 3.92987 2.4223 2.89315 1.39202 1.62559C0.867285 2.52892 0.70657 3.59828 0.942595 4.61595C1.17862 5.63361 1.79364 6.52306 2.66243 7.10319C2.00942 7.08384 1.37064 6.90768 0.80001 6.58959C0.80001 6.60639 0.80001 6.62399 0.80001 6.64159C0.80027 7.58897 1.12822 8.50709 1.72825 9.24023C2.32827 9.97338 3.16343 10.4764 4.09205 10.664C3.48794 10.8287 2.8541 10.8528 2.23923 10.7344C2.50144 11.5497 3.01193 12.2627 3.6993 12.7737C4.38668 13.2846 5.21656 13.5679 6.07288 13.584C4.61985 14.7259 2.82488 15.3459 0.976813 15.344C0.650331 15.3434 0.324167 15.3236 0 15.2848C1.87653 16.489 4.05998 17.1278 6.28968 17.1248" fill="#1DA1F2"/>
</svg>
